<svg id="eysodjhx8hp1" xmlns="http://www.w3.org/2000/svg" xmlns:xlink="http://www.w3.org/1999/xlink" viewBox="0 0 873.109720 736.451230" shape-rendering="geometricPrecision" text-rendering="geometricPrecision"><path id="eysodjhx8hp2" d="M366.769280,711.594140L405.625280,711.594140C408.276890,696.265194,408.276890,680.594776,405.625280,665.265830L366.769280,665.265830C371.146720,680.398390,371.146720,696.461580,366.769280,711.594140Z" transform="matrix(1 0 0 1 -163.44514465332031 -81.77438354492188)" fill="rgb(63,61,86)" stroke="none" stroke-width="1"/><path id="eysodjhx8hp3" d="M355.453940,713.210660L394.309940,713.210660C396.961560,697.881715,396.961560,682.211295,394.309940,666.882350L355.453940,666.882350C359.831380,682.014910,359.831380,698.078100,355.453940,713.210660Z" transform="matrix(1 0 0 1 -163.44514465332031 -81.77438354492188)" fill="rgb(255,101,132)" stroke="none" stroke-width="1"/><path id="eysodjhx8hp4" d="M835.113940,339.558000C789.826591,339.558000,753.113940,302.845349,753.113940,257.558000C753.113940,212.270651,789.826591,175.558000,835.113940,175.558000C880.401289,175.558000,917.113940,212.270651,917.113940,257.558000L917.113940,257.558000C917.062689,302.824104,880.380044,339.506749,835.113940,339.558000Z" transform="matrix(1 0 0 1 -163.44514465332031 -81.77438354492188)" fill="rgb(230,230,230)" stroke="none" stroke-width="1"/><path id="eysodjhx8hp5" d="M268.822060,684.142320C268.351476,684.141871,267.882306,684.090793,267.422650,683.989970L253.002720,680.843490C249.498040,680.074353,247.277123,676.613668,248.037880,673.107160L274.266880,552.921610C275.035247,549.416624,278.496210,547.195388,282.002720,547.956770L296.423130,551.104230C298.107392,551.471735,299.576660,552.493302,300.507673,553.944168C301.438685,555.395034,301.755168,557.156336,301.387490,558.840560L275.159000,679.025130C274.507528,682.005509,271.872826,684.133087,268.822090,684.142320Z" transform="matrix(1 0 0 1 -163.44514465332031 -81.77438354492188)" fill="rgb(0,143,255)" stroke="none" stroke-width="1"/><path id="eysodjhx8hp6" d="M271.064360,551.295130L261.397360,600.812030C260.511958,603.890358,262.200704,607.121328,265.233600,608.151660L286.484810,615.371130C288.184625,615.948589,290.053705,615.734574,291.578995,614.787832C293.104286,613.841090,294.125511,612.261103,294.362350,610.481570L301.214400,558.997810C301.915088,555.762416,299.867896,552.569472,296.635310,551.855940L278.212310,546.708340C274.972403,546.004161,271.774162,548.056450,271.064360,551.295130Z" transform="matrix(1 0 0 1 -163.44514465332031 -81.77438354492188)" fill="rgb(204,204,204)" stroke="none" stroke-width="1"/><path id="eysodjhx8hp7" d="M355.059360,684.142320C352.008624,684.133087,349.373922,682.005509,348.722450,679.025130L322.493940,558.840560C322.126261,557.156338,322.442743,555.395037,323.373754,553.944171C324.304764,552.493305,325.774030,551.471738,327.458290,551.104230L341.878700,547.956770C345.385434,547.194144,348.847210,549.415902,349.614540,552.921610L375.843540,673.107160C376.604297,676.613668,374.383380,680.074353,370.878700,680.843490L356.458780,683.990000C355.999119,684.090814,355.529946,684.141881,355.059360,684.142320Z" transform="matrix(1 0 0 1 -163.44514465332031 -81.77438354492188)" fill="rgb(0,143,255)" stroke="none" stroke-width="1"/><path id="eysodjhx8hp8" d="M352.817060,551.295130L362.484060,600.812030C363.369463,603.890355,361.680722,607.121324,358.647830,608.151660L337.396620,615.371130C335.696803,615.948593,333.827721,615.734580,332.302428,614.787837C330.777135,613.841095,329.755908,612.261106,329.519070,610.481570L322.667070,558.997810C321.966376,555.762415,324.013571,552.569467,327.246160,551.855940L345.669160,546.708340C348.909050,546.004192,352.107257,548.056474,352.817060,551.295130Z" transform="matrix(1 0 0 1 -163.44514465332031 -81.77438354492188)" fill="rgb(204,204,204)" stroke="none" stroke-width="1"/><circle id="eysodjhx8hp9" r="14" transform="matrix(1 0 0 1 355.66899999999998 36.78370000000000)" fill="rgb(230,230,230)" stroke="none" stroke-width="1"/><circle id="eysodjhx8hp10" r="25" transform="matrix(1 0 0 1 346.66899999999998 258.78399999999999)" fill="rgb(230,230,230)" stroke="none" stroke-width="1"/><circle id="eysodjhx8hp11" r="6" transform="matrix(1 0 0 1 822.66899999999998 298.78399999999999)" fill="rgb(255,101,132)" stroke="none" stroke-width="1"/><circle id="eysodjhx8hp12" r="6" transform="matrix(1 0 0 1 828.66899999999998 44.78370000000000)" fill="rgb(242,242,242)" stroke="none" stroke-width="1"/><circle id="eysodjhx8hp13" r="6" transform="matrix(1 0 0 1 738.66899999999998 411.78399999999999)" fill="rgb(242,242,242)" stroke="none" stroke-width="1"/><circle id="eysodjhx8hp14" r="6" transform="matrix(1 0 0 1 564.66899999999998 38.78370000000000)" fill="rgb(255,101,132)" stroke="none" stroke-width="1"/><path id="eysodjhx8hp15" d="M821.113940,233.558000C812.829669,233.558000,806.113940,226.842271,806.113940,218.558000C806.113940,210.273729,812.829669,203.558000,821.113940,203.558000C829.398211,203.558000,836.113940,210.273729,836.113940,218.558000L836.113940,218.558000C836.104731,226.838454,829.394394,233.548791,821.113940,233.558000ZM821.113940,205.558000C813.934238,205.558000,808.113940,211.378298,808.113940,218.558000C808.113940,225.737702,813.934238,231.558000,821.113940,231.558000C828.293642,231.558000,834.113940,225.737702,834.113940,218.558000C834.113940,211.378298,828.293642,205.558000,821.113940,205.558000Z" transform="matrix(1 0 0 1 -163.44514465332031 -81.77438354492188)" fill="rgb(204,204,204)" stroke="none" stroke-width="1"/><path id="eysodjhx8hp16" d="M793.113940,271.558000C787.038808,271.558000,782.113940,266.633132,782.113940,260.558000C782.113940,254.482868,787.038808,249.558000,793.113940,249.558000C799.189072,249.558000,804.113940,254.482868,804.113940,260.558000L804.113940,260.558000C804.107079,266.630288,799.186228,271.551139,793.113940,271.558000ZM793.113940,251.558000C788.143377,251.558000,784.113940,255.587437,784.113940,260.558000C784.113940,265.528563,788.143377,269.558000,793.113940,269.558000C798.084503,269.558000,802.113940,265.528563,802.113940,260.558000C802.113940,255.587437,798.084503,251.558000,793.113940,251.558000Z" transform="matrix(1 0 0 1 -163.44514465332031 -81.77438354492188)" fill="rgb(204,204,204)" stroke="none" stroke-width="1"/><path id="eysodjhx8hp17" d="M855.113940,324.558000C849.038808,324.558000,844.113940,319.633132,844.113940,313.558000C844.113940,307.482868,849.038808,302.558000,855.113940,302.558000C861.189072,302.558000,866.113940,307.482868,866.113940,313.558000L866.113940,313.558000C866.107079,319.630288,861.186228,324.551139,855.113940,324.558000ZM855.113940,304.558000C850.143377,304.558000,846.113940,308.587437,846.113940,313.558000C846.113940,318.528563,850.143377,322.558000,855.113940,322.558000C860.084503,322.558000,864.113940,318.528563,864.113940,313.558000L864.113940,313.558000C864.108346,308.589756,860.082184,304.563594,855.113940,304.558000Z" transform="matrix(1 0 0 1 -163.44514465332031 -81.77438354492188)" fill="rgb(204,204,204)" stroke="none" stroke-width="1"/><path id="eysodjhx8hp18" d="M835.113940,290.558000C766.702810,290.558000,713.113940,276.062880,713.113940,257.558000C713.113940,246.775280,729.019210,237.509660,757.900070,231.467670L758.310230,233.425670C730.858080,239.168360,715.113940,247.964260,715.113940,257.558010C715.113940,274.361720,770.067070,288.558010,835.113940,288.558010C900.160810,288.558010,955.113940,274.361720,955.113940,257.558010C955.113940,247.946190,939.316090,239.139060,911.771170,233.394920L912.179370,231.436920C941.155930,237.479870,957.113940,246.756240,957.113940,257.558000C957.113940,276.062920,903.525070,290.558000,835.113940,290.558000Z" transform="matrix(1 0 0 1 -163.44514465332031 -81.77438354492188)" fill="none" stroke="rgb(0,0,0)" stroke-width="1"/><path id="eysodjhx8hp19" d="M773.554920,607.774380C770.780510,607.774380,767.977770,607.730430,765.226790,607.644490L765.289290,605.646490C769.239490,605.769490,773.270740,605.803710,777.239490,605.749030L777.266830,607.749030Q775.413800,607.773890,773.554920,607.774380ZM789.300000,607.310510L789.182810,605.314420C793.138860,605.081020,797.145700,604.752890,801.091990,604.339810L801.300990,606.328090C797.324450,606.745080,793.287340,607.076130,789.300000,607.310510ZM753.204290,606.998990C749.215040,606.693320,745.183790,606.292990,741.221870,605.806600L741.466010,603.822230C745.397650,604.303670,749.397650,604.702110,753.356640,605.004840ZM813.243360,604.799770L812.943550,602.823200C816.874220,602.226520,820.835150,601.534140,824.713080,600.763630L825.102730,602.724570C821.194570,603.500940,817.204330,604.199120,813.243400,604.799770ZM729.308300,604.068320C725.367380,603.400320,721.389350,602.632770,717.485060,601.785120L717.909370,599.830040C721.783880,600.671840,725.731150,601.433560,729.642280,602.095670ZM836.856640,600.106410L836.376170,598.165000C840.234570,597.210900,844.114450,596.156210,847.908400,595.031210L848.476750,596.949210C844.653550,598.083000,840.744370,599.145470,836.856680,600.106410ZM705.780470,598.959920C701.914740,597.931600,698.024610,596.800740,694.217970,595.596640L694.820500,593.690390C698.598340,594.884730,702.458690,596.006800,706.294140,597.026330ZM859.938670,593.258750L859.282420,591.370080C863.026560,590.068320,866.792180,588.661080,870.476750,587.186490L871.218940,589.043910C867.507070,590.529260,863.712150,591.947230,859.938710,593.258750ZM682.793200,591.692340C679.038810,590.312460,675.260970,588.823200,671.565660,587.266560L672.342030,585.422810C676.009030,586.967740,679.757560,588.445270,683.483630,589.815390ZM882.267810,584.324120L881.439690,582.503810C885.035390,580.870020,888.649690,579.125880,892.181870,577.320210L893.092030,579.101460C889.532460,580.920860,885.890860,582.677700,882.267810,584.324120ZM660.557360,582.330000C656.948470,580.610270,653.325920,578.781170,649.791740,576.892500L650.734120,575.128830C654.241930,577.002830,657.836170,578.818280,661.417710,580.525310ZM903.666250,573.385660L902.676010,571.649340C906.124260,569.681560,909.566640,567.613200,912.905510,565.500900L913.973870,567.190350C910.609610,569.319350,907.141870,571.404280,903.666250,573.385720ZM639.290250,570.967660C635.857630,568.925660,632.420130,566.772350,629.073940,564.568250L630.174530,562.898330C633.494840,565.085830,636.905970,567.222550,640.312710,569.248910ZM923.989470,560.528210L922.844940,558.889540C926.092010,556.620980,929.332240,554.245010,932.475800,551.828990L933.694550,553.414930C930.527620,555.849620,927.261990,558.243180,923.989550,560.528330ZM619.163790,557.711800C615.935790,555.367080,612.711150,552.911020,609.578790,550.410050L610.826790,548.847550C613.935190,551.328990,617.135380,553.766490,620.338510,556.092660ZM943.066680,545.866220L941.777620,544.336930C944.803980,541.783220,947.815700,539.122080,950.730740,536.426770L952.088160,537.895520C949.151600,540.611290,946.116440,543.292930,943.066640,545.866170ZM600.338680,542.680680C597.332330,540.047860,594.345520,537.309580,591.461680,534.541030L592.846440,533.097670C595.708750,535.845720,598.672620,538.563490,601.656010,541.176770ZM960.739560,529.519540L959.315730,528.115250C962.105730,525.288100,964.865540,522.362320,967.516900,519.419930L969.003230,520.757820C966.331300,523.723640,963.551020,526.670910,960.739500,529.519540ZM582.966560,526.007820C580.208260,523.107430,577.484140,520.109390,574.869880,517.097670L576.380620,515.787120C578.974860,518.776380,581.677990,521.750990,584.415780,524.628920ZM976.859630,511.627940L975.314710,510.358410C977.835210,507.291030,980.316710,504.125990,982.692640,500.949230L984.294200,502.146500C981.900580,505.347670,979.399610,508.538100,976.859570,511.627940ZM567.188770,507.831000C564.711770,504.701110,562.272770,501.469670,559.939260,498.226500L561.562260,497.058500C563.878180,500.276280,566.298590,503.483310,568.757090,506.590730ZM991.288380,492.334000L989.634080,491.210950C991.864550,487.926770,994.049080,484.546890,996.126270,481.163100L997.831350,482.209970C995.736560,485.619180,993.535350,489.025400,991.288350,492.333970ZM553.137500,488.304700C550.958300,484.963880,548.825500,481.526380,546.797660,478.084970L548.520310,477.069350C550.533010,480.484350,552.649710,483.896500,554.812310,487.210950ZM1003.903610,471.793960L1002.153610,470.827160C1004.073540,467.352550,1005.938770,463.784160,1007.699510,460.220720L1009.492510,461.107430C1007.718920,464.697230,1005.838180,468.292930,1003.903610,471.793910ZM540.932910,467.588880C539.067680,464.063490,537.259080,460.446300,535.557420,456.838880L537.366020,455.985360C539.055020,459.565440,540.849410,463.155290,542.700490,466.653360ZM1014.584280,450.172880L1012.752280,449.370150C1014.346030,445.730500,1015.876280,442.002960,1017.301100,438.292020L1019.168290,439.008820C1017.732720,442.749000,1016.189750,446.504840,1014.584280,450.172810ZM530.681930,445.857450C529.148730,442.177770,527.680470,438.413120,526.318160,434.667020L528.198050,433.983430C529.549610,437.701200,531.006640,441.436560,532.527640,445.087920ZM1023.232720,427.641630L1021.334280,427.012730C1022.582280,423.251990,1023.760060,419.408240,1024.834280,415.586950L1026.760060,416.127950C1025.677050,419.978480,1024.489550,423.852500,1023.232720,427.641560ZM522.465560,423.258820C521.275620,419.447300,520.157460,415.553740,519.142320,411.684600L521.076890,411.176790C522.084220,415.016630,523.194080,418.880890,524.374740,422.663120ZM1029.751150,404.463900L1027.802910,404.010770C1028.698410,400.156280,1029.516770,396.219770,1030.236500,392.312530L1032.203300,392.673860C1031.478810,396.612340,1030.653610,400.578160,1029.751300,404.463860ZM516.357150,399.969760C515.523150,396.063510,514.768280,392.084020,514.113980,388.139680L516.086640,387.811560C516.736540,391.726560,517.485560,395.675810,518.313200,399.551790ZM1034.109530,380.786160L1032.127100,380.514680C1032.665190,376.597680,1033.119290,372.603550,1033.477690,368.642610L1035.469880,368.822300C1035.108670,372.814490,1034.650660,376.838900,1034.109650,380.786160ZM512.415680,376.219760C511.944000,372.260760,511.556790,368.228550,511.264310,364.235380L513.259430,364.088900C513.548980,368.052770,513.933750,372.053740,514.402010,375.983430ZM1036.284330,356.810580L1034.286330,356.720740C1034.464070,352.757840,1034.554890,348.738310,1034.554890,344.774450L1036.554890,344.774450C1036.555010,348.768590,1036.464190,352.818390,1036.284500,356.810580ZM510.658330,352.209020C510.589980,349.756870,510.555330,347.254910,510.554820,344.774450Q510.554820,342.465850,510.594370,340.166050L512.594370,340.201200Q512.554810,342.483440,512.554820,344.774450C512.555310,347.236360,512.589980,349.719760,512.657360,352.154330ZM1034.540170,341.984410C1034.499170,338.019080,1034.366340,334.000030,1034.146620,330.038120L1036.142710,329.926790C1036.364390,333.918980,1036.498180,337.968290,1036.540170,341.962920ZM513.069080,328.261160L511.072990,328.136160C511.322500,324.140070,511.667220,320.103940,512.096420,316.139580L514.084700,316.354910C513.658440,320.289510,513.317130,324.294880,513.069080,328.261160ZM1033.211080,318.126400C1032.811660,314.183530,1032.314590,310.194270,1031.734520,306.268490L1033.713030,305.976490C1034.297030,309.932060,1034.798030,313.951590,1035.201310,317.924250ZM515.641830,304.508260L513.665270,304.202600C514.278060,300.246060,514.989980,296.258260,515.781480,292.348600L517.741480,292.745090C516.956290,296.625000,516.249740,300.582480,515.641830,304.508260ZM1029.716000,294.492640C1028.953310,290.591270,1028.093000,286.664020,1027.157410,282.820270L1029.100770,282.347620C1030.043150,286.220620,1030.910340,290.178180,1031.678890,294.108850ZM520.379140,281.091270L518.439200,280.604940C519.410390,276.731410,520.486070,272.825650,521.636460,268.995570L523.551460,269.570760C522.410390,273.371540,521.343000,277.247520,520.379140,281.091270ZM1024.063650,271.277790C1022.948410,267.469690,1021.729650,263.639120,1020.441580,259.891080L1022.332200,259.240680C1023.631030,263.017540,1024.859550,266.878380,1025.983570,270.715290ZM527.264000,258.177700L525.377280,257.514610C526.706380,253.733850,528.141440,249.935020,529.642410,246.223610L531.496910,246.973610C530.007070,250.656210,528.582750,254.426230,527.264000,258.177700ZM1016.297200,248.683070C1014.838200,245.002400,1013.275710,241.308560,1011.652670,237.703580L1013.476890,236.882290C1015.112630,240.515100,1016.686890,244.237290,1018.156570,247.945760ZM536.240500,235.980430L534.423110,235.145430C536.093520,231.507740,537.871360,227.859790,539.707290,224.303150L541.484640,225.220150C539.662340,228.750000,537.898180,232.370060,536.240470,235.980430ZM1006.508990,226.944790C1004.718990,223.414020,1002.822470,219.875940,1000.872270,216.430140L1002.612510,215.444790C1004.578330,218.917440,1006.488510,222.482380,1008.292190,226.040490ZM547.217490,214.715290L545.484090,213.717290C547.479210,210.252930,549.583210,206.785160,551.737990,203.411130L553.423540,204.487310C551.285420,207.835920,549.197040,211.277310,547.217540,214.715310ZM994.758990,206.180140C992.645710,202.815900,990.432820,199.464320,988.181840,196.218220L989.824420,195.078580C992.092970,198.349580,994.323420,201.726580,996.452350,205.116660ZM560.090560,194.556600L558.455800,193.404260C560.761460,190.134260,563.172110,186.874960,565.622300,183.716760L567.202380,184.942340C564.771230,188.077140,562.378160,191.311470,560.090560,194.556600ZM981.154560,186.564420C978.744400,183.407680,976.234640,180.269490,973.692650,177.237270L975.225850,175.952600C977.786400,179.008260,980.315690,182.169880,982.744400,185.350600ZM574.744000,175.665470L573.221530,174.368600C575.808940,171.329540,578.505710,168.304600,581.236670,165.377880L582.698590,166.742120C579.988510,169.646930,577.312240,172.649360,574.744000,175.665470ZM965.813820,168.257270C963.127300,165.332950,960.340190,162.434520,957.531590,159.643500L958.941750,158.224560C961.771830,161.037560,964.579440,163.957470,967.286480,166.903760ZM591.048680,158.193270L589.650250,156.763580C592.510110,153.965730,595.469580,151.199580,598.445660,148.542390L599.777660,150.034570C596.824040,152.671320,593.887030,155.416440,591.048660,158.193310ZM948.866550,151.413480C945.922220,148.743070,942.882180,146.109280,939.831400,143.585360L941.106790,142.044360C944.180030,144.587360,947.243510,147.241130,950.210300,149.932050ZM608.866930,142.281700L607.604240,140.730900C610.697500,138.211900,613.894240,135.727500,617.106190,133.346630L618.297600,134.953070C615.109610,137.316350,611.936760,139.781700,608.866930,142.281700ZM930.448470,136.174770C927.271720,133.782680,924.003160,131.435510,920.733630,129.198690L921.862540,127.548300C925.157460,129.801720,928.450430,132.166470,931.651600,134.577110ZM628.049060,128.064420L626.932850,126.405240C630.243400,124.177700,633.651600,121.996540,637.063220,119.920860L638.102280,121.629860C634.717000,123.689420,631.334700,125.854450,628.049060,128.064420ZM910.708240,122.673300C907.328360,120.581510,903.857650,118.542440,900.392810,116.611780L901.365470,114.864710C904.857650,116.810020,908.354720,118.865200,911.760970,120.972150ZM648.436760,115.663050L647.476760,113.908170C650.979210,111.991660,654.570510,110.132290,658.150590,108.380820L659.029500,110.177690C655.476820,111.915470,651.912860,113.760690,648.436790,115.663030ZM889.806870,111.029260C886.248280,109.256320,882.602770,107.543420,878.971870,105.938440L879.780460,104.109340C883.439640,105.726520,887.113460,107.452600,890.699410,109.239230ZM669.858630,105.185000L669.063710,103.350000C672.723870,101.763570,676.468010,100.242080,680.191640,98.827530L680.901640,100.697650C677.206290,102.101000,673.491000,103.610790,669.858630,105.185000ZM867.910390,101.350520C864.207260,99.914520,860.417220,98.544370,856.644760,97.278750L857.281480,95.382260C861.082260,96.658140,864.901600,98.038510,868.633040,99.486260ZM692.167220,96.713810L691.544220,94.813420C695.345000,93.567330,699.222930,92.393990,703.069610,91.327100L703.604280,93.253850C699.786850,94.313000,695.938710,95.477000,692.167220,96.713810ZM845.230700,93.740150C841.416250,92.652750,837.525620,91.640050,833.667220,90.730390L834.126220,88.784100C838.014890,89.700600,841.934810,90.721100,845.779540,91.816320ZM715.189200,90.324620L714.743880,88.374920C718.640370,87.484790,722.609610,86.673750,726.540760,85.964760L726.896230,87.932530C722.994370,88.636680,719.055960,89.441360,715.189230,90.324650ZM821.976790,88.257740C818.082260,87.526740,814.115470,86.876390,810.185790,86.324620L810.463130,84.344160C814.423130,84.900310,818.421130,85.555580,822.345950,86.291910ZM738.701400,86.081470L738.436760,84.099050C742.395760,83.570720,746.422110,83.126390,750.403550,82.779700L750.577380,84.771890C746.626210,85.116660,742.631090,85.557090,738.701380,86.081500ZM798.317620,84.934000C794.378160,84.562900,790.368400,84.276770,786.398670,84.084870L786.496330,82.086870C790.495330,82.280720,794.535390,82.568870,798.505120,82.942870ZM762.503160,84.004800L762.419160,82.006800C766.094940,81.853480,769.841030,81.775360,773.554900,81.774370L774.460170,81.775850L774.454310,83.775850L773.554900,83.774370C769.869350,83.775370,766.150600,83.852960,762.503140,84.004830Z" transform="matrix(1 0 0 1 -163.44514465332031 -81.77438354492188)" fill="rgb(230,230,230)" stroke="none" stroke-width="1"/><path id="eysodjhx8hp20" d="M548.027940,450.563650C557.394090,439.233540,567.969100,428.582240,580.875780,421.545650C593.782460,414.509060,609.330430,411.386410,623.422410,415.571040C633.941940,418.694790,642.908410,425.566860,651.206710,432.747190C668.208710,447.458700,683.886160,464.302330,703.939990,474.467920C723.993820,484.633510,750.417710,486.530920,767.450990,471.855520C780.931760,460.240810,786.679320,440.123190,802.777890,432.542260C818.647280,425.069260,837.047610,433.093860,853.151180,440.047940C875.020098,449.490386,897.650554,457.060807,920.799180,462.677790C936.458850,466.476790,952.590180,469.388880,968.631460,467.861080C984.672740,466.333280,1000.773120,459.911370,1011.235640,447.656080" transform="matrix(1 0 0 1 -163.44514465332031 -81.77438354492188)" fill="rgba(0,0,0,0.04)" stroke="rgb(0,0,0)" stroke-width="1" stroke-opacity="0.41" stroke-dashoffset="529.820000" stroke-dasharray="529.820000"/><path id="eysodjhx8hp21" d="M471.559710,394.281640L511.936270,394.281640C514.691640,378.352838,514.691640,362.069202,511.936270,346.140400L471.559710,346.140400C476.108450,361.865131,476.108450,378.556909,471.559710,394.281640Z" transform="matrix(1 0 0 1 -163.44514465332031 -81.77438354492188)" fill="rgb(0,143,255)" stroke="none" stroke-width="1"/><path id="eysodjhx8hp22" d="M847.559740,270.281640L887.936270,270.281640C890.691640,254.352835,890.691640,238.069195,887.936270,222.140390L847.559740,222.140390C852.108510,237.865120,852.108510,254.556910,847.559740,270.281640Z" transform="matrix(1 0 0 1 -163.44514465332031 -81.77438354492188)" fill="rgb(0,143,255)" stroke="none" stroke-width="1"/><rect id="eysodjhx8hp23" width="27" height="3" rx="0" ry="0" transform="matrix(1 0 0 1 315.66899999999998 279.78399999999999)" fill="rgb(242,242,242)" stroke="none" stroke-width="1"/><rect id="eysodjhx8hp24" width="27" height="3" rx="0" ry="0" transform="matrix(1 0 0 1 315.66899999999998 286.78399999999999)" fill="rgb(242,242,242)" stroke="none" stroke-width="1"/><rect id="eysodjhx8hp25" width="27" height="3" rx="0" ry="0" transform="matrix(1 0 0 1 692.66899999999998 151.78399999999999)" fill="rgb(242,242,242)" stroke="none" stroke-width="1"/><rect id="eysodjhx8hp26" width="27" height="3" rx="0" ry="0" transform="matrix(1 0 0 1 692.66899999999998 165.78399999999999)" fill="rgb(242,242,242)" stroke="none" stroke-width="1"/><rect id="eysodjhx8hp27" width="27" height="3" rx="0" ry="0" transform="matrix(1 0 0 1 692.66899999999998 158.78399999999999)" fill="rgb(242,242,242)" stroke="none" stroke-width="1"/><rect id="eysodjhx8hp28" width="324.033000" height="2.240720" rx="0" ry="0" transform="matrix(1 0 0 1 0 734.21100000000001)" fill="rgb(63,61,86)" stroke="none" stroke-width="1"/><circle id="eysodjhx8hp29" r="53.519200" transform="matrix(1 0 0 1 148.66700000000000 401.52400000000000)" fill="rgb(0,143,255)" stroke="none" stroke-width="1"/><path id="eysodjhx8hp30" d="M303.679480,816.644270L288.920200,816.644270C285.332069,816.640120,282.424350,813.732401,282.420200,810.144270L282.420200,687.129620C282.424350,683.541489,285.332069,680.633770,288.920200,680.629620L303.679480,680.629620C307.267611,680.633770,310.175330,683.541489,310.179480,687.129620L310.179480,810.144270C310.175330,813.732401,307.267611,816.640120,303.679480,816.644270Z" transform="matrix(1 0 0 1 -163.44514465332031 -81.77438354492188)" fill="rgb(47,46,65)" stroke="none" stroke-width="1"/><path id="eysodjhx8hp31" d="M332.871860,816.644270L318.112100,816.644270C314.523969,816.640120,311.616250,813.732401,311.612100,810.144270L311.612100,687.129620C311.616250,683.541489,314.523969,680.633770,318.112100,680.629620L332.871860,680.629620C336.459991,680.633770,339.367710,683.541489,339.371860,687.129620L339.371860,810.144270C339.367710,813.732401,336.459991,816.640120,332.871860,816.644270Z" transform="matrix(1 0 0 1 -163.44514465332031 -81.77438354492188)" fill="rgb(47,46,65)" stroke="none" stroke-width="1"/><path id="eysodjhx8hp32" d="M345.035440,701.091530L277.972940,701.091530C274.384807,701.087386,271.477084,698.179663,271.472940,694.591530L271.472940,552.116000C271.477084,548.527867,274.384807,545.620144,277.972940,545.616000L345.035440,545.616000C348.623571,545.620150,351.531290,548.527869,351.535440,552.116000L351.535440,694.591530C351.531290,698.179661,348.623571,701.087380,345.035440,701.091530Z" transform="matrix(1 0 0 1 -163.44514465332031 -81.77438354492188)" fill="rgb(204,204,204)" stroke="none" stroke-width="1"/><path id="eysodjhx8hp33" d="M338.038500,460.670440C337.477564,458.203096,335.406271,456.367828,332.889340,456.108030C330.123709,455.783131,327.383212,456.890262,325.619340,459.045030C323.552090,461.331090,322.456480,464.180660,320.970160,466.831570C319.418260,469.599460,317.334920,471.593200,314.127560,472.187090C307.609280,473.394030,301.996390,468.783970,297.647730,464.559660C292.584257,459.645983,287.991710,454.269253,283.930150,448.499790C280.053650,442.985490,276.122680,436.992620,274.746310,430.291220C273.383453,424.536601,275.407116,418.507386,279.965860,414.740310C290.240000,406.253030,304.615410,409.781980,316.665920,410.141240C323.751560,410.352480,330.836020,409.408690,336.883540,405.464920C341.993720,402.132420,345.873400,396.966920,345.999040,390.689130C346.037690,388.757880,343.037680,388.758020,342.999040,390.689130C342.887430,396.266130,339.077980,400.698210,334.470150,403.434040C328.886880,406.749040,322.560650,407.353680,316.186040,407.125350C303.679590,406.677350,289.827040,403.651430,278.932540,411.766550C274.273976,415.097201,271.461665,420.432034,271.346150,426.157600C271.248700,432.854430,274.408150,439.232600,277.869370,444.779520C281.584428,450.726575,285.824596,456.328990,290.539070,461.519640C295.016860,466.452470,300.003170,471.881140,306.369660,474.301790C309.441003,475.500147,312.815497,475.682928,315.998310,474.823330C319.289738,473.772791,322.016957,471.436742,323.560580,468.345730C325.139860,465.528990,326.253580,462.033570,328.948460,460.031570C330.870560,458.603650,334.659720,458.495080,335.145640,461.467960C335.456300,463.368580,338.347640,462.562160,338.038480,460.670440Z" transform="matrix(1 0 0 1 -163.44514465332031 -81.77438354492188)" fill="rgb(0,0,0)" fill-opacity="0.89" stroke="rgb(0,0,0)" stroke-width="1" stroke-linecap="round" stroke-linejoin="round" stroke-dasharray="387.430000"/><circle id="eysodjhx8hp34" r="6" transform="matrix(1 0 0 1 570.66899999999998 397.78399999999999)" fill="rgb(255,101,132)" stroke="none" stroke-width="1"/><path id="eysodjhx8hp35" d="M723.559730,528.281640L763.936250,528.281640C766.691620,512.352838,766.691620,496.069202,763.936250,480.140400L723.559730,480.140400C728.108460,495.865133,728.108460,512.556907,723.559730,528.281640Z" transform="matrix(1 0 0 1 -163.44514465332031 -81.77438354492188)" fill="rgb(63,61,86)" stroke="none" stroke-width="1"/><rect id="eysodjhx8hp36" width="27" height="3" rx="0" ry="0" transform="matrix(1 0 0 1 567.66899999999998 416.78399999999999)" fill="rgb(242,242,242)" stroke="none" stroke-width="1"/><path id="eysodjhx8hp37" d="M357.307900,506.956770L357.252240,504.956770C360.972940,504.853250,364.253240,504.619850,366.718060,502.819070C368.132045,501.727296,369.001224,500.074478,369.099400,498.290750C369.187185,497.198975,368.760915,496.128695,367.946570,495.396220C366.310340,494.014390,363.677570,494.461650,361.758570,495.341530L360.103790,496.100320L363.277130,472.909890L365.258570,473.181380L362.559350,492.907940C365.166780,492.141340,367.582790,492.471420,369.237580,493.868880C370.525564,494.993324,371.213814,496.655243,371.097930,498.361070C370.979748,500.758560,369.808468,502.981380,367.897730,504.434310C364.730750,506.748760,360.615000,506.864000,357.307900,506.956770Z" transform="matrix(1 0 0 1 -163.44514465332031 -81.77438354492188)" fill="rgb(47,46,65)" stroke="none" stroke-width="1"/><rect id="eysodjhx8hp38" width="10.771500" height="2" rx="0" ry="0" transform="matrix(1 0 0 1 177.61300000000000 393.10800000000000)" fill="rgb(47,46,65)" stroke="none" stroke-width="1"/><script><![CDATA[!function(t,n){"object"==typeof exports&&"undefined"!=typeof module?module.exports=n():"function"==typeof define&&define.amd?define(n):(t=t||self).__SVGATOR_PLAYER__=n()}(this,(function(){"use strict";function t(n){return(t="function"==typeof Symbol&&"symbol"==typeof Symbol.iterator?function(t){return typeof t}:function(t){return t&&"function"==typeof Symbol&&t.constructor===Symbol&&t!==Symbol.prototype?"symbol":typeof t})(n)}function n(t,n){if(!(t instanceof n))throw new TypeError("Cannot call a class as a function")}function r(t,n){for(var r=0;r<n.length;r++){var e=n[r];e.enumerable=e.enumerable||!1,e.configurable=!0,"value"in e&&(e.writable=!0),Object.defineProperty(t,e.key,e)}}function e(t,n,e){return n&&r(t.prototype,n),e&&r(t,e),t}function i(t){return(i=Object.setPrototypeOf?Object.getPrototypeOf:function(t){return t.__proto__||Object.getPrototypeOf(t)})(t)}function u(t,n){return(u=Object.setPrototypeOf||function(t,n){return t.__proto__=n,t})(t,n)}function o(t,n){return!n||"object"!=typeof n&&"function"!=typeof n?function(t){if(void 0===t)throw new ReferenceError("this hasn't been initialised - super() hasn't been called");return t}(t):n}function a(t){var n=function(){if("undefined"==typeof Reflect||!Reflect.construct)return!1;if(Reflect.construct.sham)return!1;if("function"==typeof Proxy)return!0;try{return Date.prototype.toString.call(Reflect.construct(Date,[],(function(){}))),!0}catch(t){return!1}}();return function(){var r,e=i(t);if(n){var u=i(this).constructor;r=Reflect.construct(e,arguments,u)}else r=e.apply(this,arguments);return o(this,r)}}function l(t,n,r){return(l="undefined"!=typeof Reflect&&Reflect.get?Reflect.get:function(t,n,r){var e=function(t,n){for(;!Object.prototype.hasOwnProperty.call(t,n)&&null!==(t=i(t)););return t}(t,n);if(e){var u=Object.getOwnPropertyDescriptor(e,n);return u.get?u.get.call(r):u.value}})(t,n,r||t)}var f=Math.abs;function s(t){return t}function c(t,n,r){var e=1-r;return 3*r*e*(t*e+n*r)+r*r*r}function h(){var t=arguments.length>0&&void 0!==arguments[0]?arguments[0]:0,n=arguments.length>1&&void 0!==arguments[1]?arguments[1]:0,r=arguments.length>2&&void 0!==arguments[2]?arguments[2]:1,e=arguments.length>3&&void 0!==arguments[3]?arguments[3]:1;return t<0||t>1||r<0||r>1?null:f(t-n)<=1e-5&&f(r-e)<=1e-5?s:function(i){if(i<=0)return t>0?i*n/t:0===n&&r>0?i*e/r:0;if(i>=1)return r<1?1+(i-1)*(e-1)/(r-1):1===r&&t<1?1+(i-1)*(n-1)/(t-1):1;for(var u,o=0,a=1;o<a;){var l=c(t,r,u=(o+a)/2);if(f(i-l)<1e-5)break;l<i?o=u:a=u}return c(n,e,u)}}function v(){return 1}function y(t){return 1===t?1:0}function d(){var t=arguments.length>0&&void 0!==arguments[0]?arguments[0]:1,n=arguments.length>1&&void 0!==arguments[1]?arguments[1]:0;if(1===t){if(0===n)return y;if(1===n)return v}var r=1/t;return function(t){return t>=1?1:(t+=n*r)-t%r}}function g(t){var n=arguments.length>1&&void 0!==arguments[1]?arguments[1]:2;if(Number.isInteger(t))return t;var r=Math.pow(10,n);return Math.round(t*r)/r}var p=Math.PI/180;function m(t,n,r){return t>=.5?r:n}function b(t,n,r){return 0===t||n===r?n:t*(r-n)+n}function w(t,n,r){var e=b(t,n,r);return e<=0?0:e}function A(t,n,r){return 0===t?n:1===t?r:{x:b(t,n.x,r.x),y:b(t,n.y,r.y)}}function x(t,n,r){return 0===t?n:1===t?r:{x:w(t,n.x,r.x),y:w(t,n.y,r.y)}}function k(t,n,r){var e=function(t,n,r){return Math.round(b(t,n,r))}(t,n,r);return e<=0?0:e>=255?255:e}function _(t,n,r){return 0===t?n:1===t?r:{r:k(t,n.r,r.r),g:k(t,n.g,r.g),b:k(t,n.b,r.b),a:b(t,null==n.a?1:n.a,null==r.a?1:r.a)}}function S(t,n,r){if(0===t)return n;if(1===t)return r;var e=n.length;if(e!==r.length)return m(t,n,r);for(var i=[],u=0;u<e;u++)i.push(_(t,n[u],r[u]));return i}function O(t,n,r){var e=n.length;if(e!==r.length)return m(t,n,r);for(var i=new Array(e),u=0;u<e;u++)i[u]=b(t,n[u],r[u]);return i}function M(t,n){for(var r=[],e=0;e<t;e++)r.push(n);return r}function B(t,n){if(--n<=0)return t;var r=(t=Object.assign([],t)).length;do{for(var e=0;e<r;e++)t.push(t[e])}while(--n>0);return t}var I,j=function(){function t(r){n(this,t),this.list=r,this.length=r.length}return e(t,[{key:"setAttribute",value:function(t,n){for(var r=this.list,e=0;e<this.length;e++)r[e].setAttribute(t,n)}},{key:"removeAttribute",value:function(t){for(var n=this.list,r=0;r<this.length;r++)n[r].removeAttribute(t)}},{key:"style",value:function(t,n){for(var r=this.list,e=0;e<this.length;e++)r[e].style[t]=n}}]),t}(),E=/-./g,F=function(t,n){return n.toUpperCase()};function P(t){return"function"==typeof t?t:m}function R(t){return t?"function"==typeof t?t:Array.isArray(t)?function(t){var n=arguments.length>1&&void 0!==arguments[1]?arguments[1]:s;if(!Array.isArray(t))return n;switch(t.length){case 1:return d(t[0])||n;case 2:return d(t[0],t[1])||n;case 4:return h(t[0],t[1],t[2],t[3])||n}return n}(t,null):function(t,n){var r=arguments.length>2&&void 0!==arguments[2]?arguments[2]:s;switch(t){case"linear":return s;case"steps":return d(n.steps||1,n.jump||0)||r;case"bezier":case"cubic-bezier":return h(n.x1||0,n.y1||0,n.x2||0,n.y2||0)||r}return r}(t.type,t.value,null):null}function q(t,n,r){var e=arguments.length>3&&void 0!==arguments[3]&&arguments[3],i=n.length-1;if(t<=n[0].t)return e?[0,0,n[0].v]:n[0].v;if(t>=n[i].t)return e?[i,1,n[i].v]:n[i].v;var u,o=n[0],a=null;for(u=1;u<=i;u++){if(!(t>n[u].t)){a=n[u];break}o=n[u]}return null==a?e?[i,1,n[i].v]:n[i].v:o.t===a.t?e?[u,1,a.v]:a.v:(t=(t-o.t)/(a.t-o.t),o.e&&(t=o.e(t)),e?[u,t,r(t,o.v,a.v)]:r(t,o.v,a.v))}function T(t,n){var r=arguments.length>2&&void 0!==arguments[2]?arguments[2]:null;return t&&t.length?"function"!=typeof n?null:("function"!=typeof r&&(r=null),function(e){var i=q(e,t,n);return null!=i&&r&&(i=r(i)),i}):null}function D(t,n){return t.t-n.t}function z(n,r,e,i,u){var o,a="@"===e[0],l="#"===e[0],f=I[e],s=m;switch(a?(o=e.substr(1),e=o.replace(E,F)):l&&(e=e.substr(1)),t(f)){case"function":if(s=f(i,u,q,R,e,a,r,n),l)return s;break;case"string":s=T(i,P(f));break;case"object":if((s=T(i,P(f.i),f.f))&&"function"==typeof f.u)return f.u(r,s,e,a,n)}return s?function(t,n,r){var e=arguments.length>3&&void 0!==arguments[3]&&arguments[3];if(e)return t instanceof j?function(e){return t.style(n,r(e))}:function(e){return t.style[n]=r(e)};if(Array.isArray(n)){var i=n.length;return function(e){var u=r(e);if(null==u)for(var o=0;o<i;o++)t[o].removeAttribute(n);else for(var a=0;a<i;a++)t[a].setAttribute(n,u)}}return function(e){var i=r(e);null==i?t.removeAttribute(n):t.setAttribute(n,i)}}(r,e,s,a):null}function C(n,r,e,i){if(!i||"object"!==t(i))return null;var u=null,o=null;return Array.isArray(i)?o=function(t){if(!t||!t.length)return null;for(var n=0;n<t.length;n++)t[n].e&&(t[n].e=R(t[n].e));return t.sort(D)}(i):(o=i.keys,u=i.data||null),o?z(n,r,e,o,u):null}function V(t,n,r){if(!r)return null;var e=[];for(var i in r)if(r.hasOwnProperty(i)){var u=C(t,n,i,r[i]);u&&e.push(u)}return e.length?e:null}function N(t,n){if(!n.duration||n.duration<0)return null;var r=function(t,n){if(!n)return null;var r=[];if(Array.isArray(n))for(var e=n.length,i=0;i<e;i++){var u=n[i];if(2===u.length){var o=null;if("string"==typeof u[0])o=t.getElementById(u[0]);else if(Array.isArray(u[0])){o=[];for(var a=0;a<u[0].length;a++)if("string"==typeof u[0][a]){var l=t.getElementById(u[0][a]);l&&o.push(l)}o=o.length?1===o.length?o[0]:new j(o):null}if(o){var f=V(t,o,u[1]);f&&(r=r.concat(f))}}}else for(var s in n)if(n.hasOwnProperty(s)){var c=t.getElementById(s);if(c){var h=V(t,c,n[s]);h&&(r=r.concat(h))}}return r.length?r:null}(t,n.elements);return r?function(t,n){var r=arguments.length>2&&void 0!==arguments[2]?arguments[2]:1/0,e=arguments.length>3&&void 0!==arguments[3]?arguments[3]:1,i=arguments.length>4&&void 0!==arguments[4]&&arguments[4],u=arguments.length>5&&void 0!==arguments[5]?arguments[5]:1,o=t.length,a=e>0?n:0;i&&r%2==0&&(a=n-a);var l=null;return function(f,s){var c=f%n,h=1+(f-c)/n;s*=e,i&&h%2==0&&(s=-s);var v=!1;if(h>r)c=a,v=!0,-1===u&&(c=e>0?0:n);else if(s<0&&(c=n-c),c===l)return!1;l=c;for(var y=0;y<o;y++)t[y](c);return v}}(r,n.duration,n.iterations||1/0,n.direction||1,!!n.alternate,n.fill||1):null}function G(t,n){if(I=n,!t||!t.root||!Array.isArray(t.animations))return null;var r=window.document.getElementById(t.root);if(!r)return null;var e=t.animations.map((function(t){return N(r,t)})).filter((function(t){return!!t}));return e.length?{element:r,animations:e,animationSettings:t.animationSettings,options:t.options||void 0}:null}var L=function(){function t(r,e){var i=arguments.length>2&&void 0!==arguments[2]?arguments[2]:{};n(this,t),this._id=0,this._running=!1,this._rollingBack=!1,this._animations=r,this.duration=e.duration,this.alternate=e.alternate,this.fill=e.fill,this.iterations=e.iterations,this.direction=i.direction||1,this.speed=i.speed||1,this.fps=i.fps||100,this.offset=i.offset||0,this.rollbackStartOffset=0}return e(t,[{key:"_rollback",value:function(){var t=this,n=1/0,r=null;this.rollbackStartOffset=this.offset,this._rollingBack||(this._rollingBack=!0,this._running=!0);this._id=window.requestAnimationFrame((function e(i){if(t._rollingBack){null==r&&(r=i);var u=i-r,o=t.rollbackStartOffset-u,a=Math.round(o*t.speed);if(a>t.duration&&n!=1/0){var l=!!t.alternate&&a/t.duration%2>1,f=a%t.duration;a=(f+=l?t.duration:0)||t.duration}var s=t.fps?1e3/t.fps:0,c=Math.max(0,a);if(c<n-s){t.offset=c,n=c;for(var h=t._animations,v=h.length,y=0;y<v;y++)h[y](c,t.direction)}var d=!1;if(t.iterations>0&&-1===t.fill){var g=t.iterations*t.duration,p=g==a;a=p?0:a,t.offset=p?0:t.offset,d=a>g}a>0&&t.offset>=a&&!d?t._id=window.requestAnimationFrame(e):t.stop()}}))}},{key:"_start",value:function(){var t=this,n=arguments.length>0&&void 0!==arguments[0]?arguments[0]:0,r=-1/0,e=null,i={},u=function u(o){t._running=!0,null==e&&(e=o);var a=Math.round((o-e+n)*t.speed),l=t.fps?1e3/t.fps:0;if(a>r+l&&!t._rollingBack){t.offset=a,r=a;for(var f=t._animations,s=f.length,c=0,h=0;h<s;h++)i[h]?c++:(i[h]=f[h](a,t.direction),i[h]&&c++);if(c===s)return void t._stop()}t._id=window.requestAnimationFrame(u)};this._id=window.requestAnimationFrame(u)}},{key:"_stop",value:function(){this._id&&window.cancelAnimationFrame(this._id),this._running=!1,this._rollingBack=!1}},{key:"play",value:function(){!this._rollingBack&&this._running||(this._rollingBack=!1,this.rollbackStartOffset>this.duration&&(this.offset=this.rollbackStartOffset-(this.rollbackStartOffset-this.offset)%this.duration,this.rollbackStartOffset=0),this._start(this.offset))}},{key:"stop",value:function(){this._stop(),this.offset=0,this.rollbackStartOffset=0;var t=this.direction,n=this._animations;window.requestAnimationFrame((function(){for(var r=0;r<n.length;r++)n[r](0,t)}))}},{key:"reachedToEnd",value:function(){return this.iterations>0&&this.offset>=this.iterations*this.duration}},{key:"restart",value:function(){this._stop(),this.offset=0,this._start()}},{key:"pause",value:function(){this._stop()}},{key:"reverse",value:function(){this.direction=-this.direction}}],[{key:"build",value:function(n,r){return(n=G(n,r))?{el:n.element,options:n.options||{},player:new t(n.animations,n.animationSettings,n.options)}:null}}]),t}();!function(){for(var t=0,n=["ms","moz","webkit","o"],r=0;r<n.length&&!window.requestAnimationFrame;++r)window.requestAnimationFrame=window[n[r]+"RequestAnimationFrame"],window.cancelAnimationFrame=window[n[r]+"CancelAnimationFrame"]||window[n[r]+"CancelRequestAnimationFrame"];window.requestAnimationFrame||(window.requestAnimationFrame=function(n){var r=Date.now(),e=Math.max(0,16-(r-t)),i=window.setTimeout((function(){n(r+e)}),e);return t=r+e,i},window.cancelAnimationFrame=window.clearTimeout)}();var $=/\.0+$/g;function H(t){return Number.isInteger(t)?t+"":t.toFixed(6).replace($,"")}function Q(t){var n=arguments.length>1&&void 0!==arguments[1]?arguments[1]:" ";return t&&t.length?t.map(H).join(n):""}function U(t){return H(t.x)+","+H(t.y)}function Y(t){return t?null==t.a||t.a>=1?"rgb("+t.r+","+t.g+","+t.b+")":"rgba("+t.r+","+t.g+","+t.b+","+t.a+")":"transparent"}var Z={f:null,i:x,u:function(t,n){return function(r){var e=n(r);t.setAttribute("rx",H(e.x)),t.setAttribute("ry",H(e.y))}}},J={f:null,i:function(t,n,r){return 0===t?n:1===t?r:{width:w(t,n.width,r.width),height:w(t,n.height,r.height)}},u:function(t,n){return function(r){var e=n(r);t.setAttribute("width",H(e.width)),t.setAttribute("height",H(e.height))}}},K=Math.sin,W=Math.cos,X=Math.acos,tt=Math.asin,nt=Math.tan,rt=Math.atan2,et=Math.PI/180,it=180/Math.PI,ut=Math.sqrt,ot=function(){function t(){var r=arguments.length>0&&void 0!==arguments[0]?arguments[0]:1,e=arguments.length>1&&void 0!==arguments[1]?arguments[1]:0,i=arguments.length>2&&void 0!==arguments[2]?arguments[2]:0,u=arguments.length>3&&void 0!==arguments[3]?arguments[3]:1,o=arguments.length>4&&void 0!==arguments[4]?arguments[4]:0,a=arguments.length>5&&void 0!==arguments[5]?arguments[5]:0;n(this,t),this.m=[r,e,i,u,o,a],this.i=null,this.w=null,this.s=null}return e(t,[{key:"point",value:function(t,n){var r=this.m;return{x:r[0]*t+r[2]*n+r[4],y:r[1]*t+r[3]*n+r[5]}}},{key:"translateSelf",value:function(){var t=arguments.length>0&&void 0!==arguments[0]?arguments[0]:0,n=arguments.length>1&&void 0!==arguments[1]?arguments[1]:0;if(!t&&!n)return this;var r=this.m;return r[4]+=r[0]*t+r[2]*n,r[5]+=r[1]*t+r[3]*n,this.w=this.s=this.i=null,this}},{key:"rotateSelf",value:function(){var t=arguments.length>0&&void 0!==arguments[0]?arguments[0]:0;if(t%=360){var n=K(t*=et),r=W(t),e=this.m,i=e[0],u=e[1];e[0]=i*r+e[2]*n,e[1]=u*r+e[3]*n,e[2]=e[2]*r-i*n,e[3]=e[3]*r-u*n,this.w=this.s=this.i=null}return this}},{key:"scaleSelf",value:function(){var t=arguments.length>0&&void 0!==arguments[0]?arguments[0]:1,n=arguments.length>1&&void 0!==arguments[1]?arguments[1]:1;if(1!==t||1!==n){var r=this.m;r[0]*=t,r[1]*=t,r[2]*=n,r[3]*=n,this.w=this.s=this.i=null}return this}},{key:"skewSelf",value:function(t,n){if(n%=360,(t%=360)||n){var r=this.m,e=r[0],i=r[1],u=r[2],o=r[3];t&&(t=nt(t*et),r[2]+=e*t,r[3]+=i*t),n&&(n=nt(n*et),r[0]+=u*n,r[1]+=o*n),this.w=this.s=this.i=null}return this}},{key:"resetSelf",value:function(){var t=arguments.length>0&&void 0!==arguments[0]?arguments[0]:1,n=arguments.length>1&&void 0!==arguments[1]?arguments[1]:0,r=arguments.length>2&&void 0!==arguments[2]?arguments[2]:0,e=arguments.length>3&&void 0!==arguments[3]?arguments[3]:1,i=arguments.length>4&&void 0!==arguments[4]?arguments[4]:0,u=arguments.length>5&&void 0!==arguments[5]?arguments[5]:0,o=this.m;return o[0]=t,o[1]=n,o[2]=r,o[3]=e,o[4]=i,o[5]=u,this.w=this.s=this.i=null,this}},{key:"recomposeSelf",value:function(){var t=arguments.length>0&&void 0!==arguments[0]?arguments[0]:null,n=arguments.length>1&&void 0!==arguments[1]?arguments[1]:null,r=arguments.length>2&&void 0!==arguments[2]?arguments[2]:null,e=arguments.length>3&&void 0!==arguments[3]?arguments[3]:null,i=arguments.length>4&&void 0!==arguments[4]?arguments[4]:null;return this.isIdentity||this.resetSelf(),t&&(t.x||t.y)&&this.translateSelf(t.x,t.y),n&&this.rotateSelf(n),r&&(r.x&&this.skewSelf(r.x,0),r.y&&this.skewSelf(0,r.y)),!e||1===e.x&&1===e.y||this.scaleSelf(e.x,e.y),i&&(i.x||i.y)&&this.translateSelf(i.x,i.y),this}},{key:"decompose",value:function(){var t=arguments.length>0&&void 0!==arguments[0]?arguments[0]:0,n=arguments.length>1&&void 0!==arguments[1]?arguments[1]:0,r=this.m,e=r[0]*r[0]+r[1]*r[1],i=[[r[0],r[1]],[r[2],r[3]]],u=ut(e);if(0===u)return{origin:{x:r[4],y:r[5]},translate:{x:t,y:n},scale:{x:0,y:0},skew:{x:0,y:0},rotate:0};i[0][0]/=u,i[0][1]/=u;var o=r[0]*r[3]-r[1]*r[2]<0;o&&(u=-u);var a=i[0][0]*i[1][0]+i[0][1]*i[1][1];i[1][0]-=i[0][0]*a,i[1][1]-=i[0][1]*a;var l=ut(i[1][0]*i[1][0]+i[1][1]*i[1][1]);if(0===l)return{origin:{x:r[4],y:r[5]},translate:{x:t,y:n},scale:{x:u,y:0},skew:{x:0,y:0},rotate:0};i[1][0]/=l,i[1][1]/=l,a/=l;var f=0;return i[1][1]<0?(f=X(i[1][1])*it,i[0][1]<0&&(f=360-f)):f=tt(i[0][1])*it,o&&(f=-f),a=rt(a,ut(i[0][0]*i[0][0]+i[0][1]*i[0][1]))*it,{origin:{x:r[4],y:r[5]},translate:{x:t,y:n},scale:{x:u,y:l},skew:{x:a,y:0},rotate:f}}},{key:"toString",value:function(){return null===this.s&&(this.s="matrix("+this.m.map(lt).join(" ")+")"),this.s}},{key:"determinant",get:function(){var t=this.m;return t[0]*t[3]-t[1]*t[2]}},{key:"isIdentity",get:function(){if(null===this.i){var t=this.m;this.i=1===t[0]&&0===t[1]&&0===t[2]&&1===t[3]&&0===t[4]&&0===t[5]}return this.i}}]),t}(),at=/\.0+$/;function lt(t){return Number.isInteger(t)?t:t.toFixed(14).replace(at,"")}Object.freeze({M:2,L:2,Z:0,H:1,V:1,C:6,Q:4,T:2,S:4,A:7});function ft(t,n,r){return t+(n-t)*r}function st(t,n,r){var e=arguments.length>3&&void 0!==arguments[3]&&arguments[3],i={x:ft(t.x,n.x,r),y:ft(t.y,n.y,r)};return e&&(i.a=ct(t,n)),i}function ct(t,n){return Math.atan2(n.y-t.y,n.x-t.x)}function ht(t,n,r,e){var i=1-e;return i*i*t+2*i*e*n+e*e*r}function vt(t,n,r,e){return 2*(1-e)*(n-t)+2*e*(r-n)}function yt(t,n,r,e){var i=arguments.length>4&&void 0!==arguments[4]&&arguments[4],u={x:ht(t.x,n.x,r.x,e),y:ht(t.y,n.y,r.y,e)};return i&&(u.a=dt(t,n,r,e)),u}function dt(t,n,r,e){return Math.atan2(vt(t.y,n.y,r.y,e),vt(t.x,n.x,r.x,e))}function gt(t,n,r,e,i){var u=i*i;return i*u*(e-t+3*(n-r))+3*u*(t+r-2*n)+3*i*(n-t)+t}function pt(t,n,r,e,i){var u=1-i;return 3*(u*u*(n-t)+2*u*i*(r-n)+i*i*(e-r))}function mt(t,n,r,e,i){var u=arguments.length>5&&void 0!==arguments[5]&&arguments[5],o={x:gt(t.x,n.x,r.x,e.x,i),y:gt(t.y,n.y,r.y,e.y,i)};return u&&(o.a=bt(t,n,r,e,i)),o}function bt(t,n,r,e,i){return Math.atan2(pt(t.y,n.y,r.y,e.y,i),pt(t.x,n.x,r.x,e.x,i))}function wt(t,n,r){var e=arguments.length>3&&void 0!==arguments[3]&&arguments[3];if(xt(n)){if(kt(r))return yt(n,r.start,r,t,e)}else if(xt(r)){if(n.end)return yt(n,n.end,r,t,e)}else{if(n.end)return r.start?mt(n,n.end,r.start,r,t,e):yt(n,n.end,r,t,e);if(r.start)return yt(n,r.start,r,t,e)}return st(n,r,t,e)}function At(t,n,r){var e=wt(t,n,r,!0);return e.a=function(t){var n=arguments.length>1&&void 0!==arguments[1]&&arguments[1];return n?t+Math.PI:t}(e.a)/p,e}function xt(t){return!t.type||"corner"===t.type}function kt(t){return null!=t.start&&!xt(t)}var _t=new ot;var St={f:function(t){return t?t.join(" "):""},i:function(n,r,e){if(0===n)return r;if(1===n)return e;var i=r.length;if(i!==e.length)return m(n,r,e);for(var u,o=new Array(i),a=0;a<i;a++){if((u=t(r[a]))!==t(e[a]))return m(n,r,e);if("number"===u)o[a]=b(n,r[a],e[a]);else{if(r[a]!==e[a])return m(n,r,e);o[a]=r[a]}}return o}},Ot={f:null,i:O,u:function(t,n){return function(r){var e=n(r);t.setAttribute("x1",H(e[0])),t.setAttribute("y1",H(e[1])),t.setAttribute("x2",H(e[2])),t.setAttribute("y2",H(e[3]))}}},Mt={f:H,i:b},Bt={f:H,i:function(t,n,r){var e=b(t,n,r);return e<=0?0:e>=1?1:e}},It={f:Q,i:function(t,n,r){var e,i,u,o=n.length,a=r.length;if(o!==a)if(0===o)n=M(o=a,0);else if(0===a)a=o,r=M(o,0);else{var l=(u=(e=o)*(i=a)/function(t,n){for(var r;n;)r=n,n=t%n,t=r;return t||1}(e,i))<0?-u:u;n=B(n,Math.floor(l/o)),r=B(r,Math.floor(l/a)),o=a=l}for(var f=[],s=0;s<o;s++)f.push(g(w(t,n[s],r[s]),6));return f}};function jt(t,n,r,e,i,u,o,a){return n=function(t,n,r){for(var e,i,u,o=t.length-1,a={},l=0;l<=o;l++)(e=t[l]).e&&(e.e=n(e.e)),e.v&&"g"===(i=e.v).t&&i.r&&(u=r.getElementById(i.r))&&(a[i.r]=u.querySelectorAll("stop"));return a}(t,e,a),function(e){var i,u=r(e,t,Et);return u?"c"===u.t?Y(u.v):"g"===u.t?(n[u.r]&&function(t,n){for(var r=0,e=t.length;r<e;r++)t[r].setAttribute("stop-color",Y(n[r]))}(n[u.r],u.v),(i=u.r)?"url(#"+i+")":"none"):"none":"none"}}function Et(t,n,r){if(0===t)return n;if(1===t)return r;if(n&&r){var e=n.t;if(e===r.t)switch(n.t){case"c":return{t:e,v:_(t,n.v,r.v)};case"g":if(n.r===r.r)return{t:e,v:S(t,n.v,r.v),r:n.r}}}return m(t,n,r)}var Ft={blur:x,brightness:w,contrast:w,"drop-shadow":function(t,n,r){return 0===t?n:1===t?r:{blur:x(t,n.blur,r.blur),offset:A(t,n.offset,r.offset),color:_(t,n.color,r.color)}},grayscale:w,"hue-rotate":b,invert:w,opacity:w,saturate:w,sepia:w};function Pt(t,n,r){if(0===t)return n;if(1===t)return r;var e=n.length;if(e!==r.length)return m(t,n,r);for(var i,u=[],o=0;o<e;o++){if(n[o].type!==r[o].type)return n;if(!(i=Ft[n[o].type]))return m(t,n,r);u.push({type:n.type,value:i(t,n[o].value,r[o].value)})}return u}var Rt={blur:function(t){return t?function(n){t.setAttribute("stdDeviation",U(n))}:null},brightness:function(t,n,r){return(t=Tt(r,n))?function(n){n=H(n),t.map((function(t){return t.setAttribute("slope",n)}))}:null},contrast:function(t,n,r){return(t=Tt(r,n))?function(n){var r=H((1-n)/2);n=H(n),t.map((function(t){t.setAttribute("slope",n),t.setAttribute("intercept",r)}))}:null},"drop-shadow":function(t,n,r){var e=r.getElementById(n+"-blur");if(!e)return null;var i=r.getElementById(n+"-offset");if(!i)return null;var u=r.getElementById(n+"-flood");return u?function(t){e.setAttribute("stdDeviation",U(t.blur)),i.setAttribute("dx",H(t.offset.x)),i.setAttribute("dy",H(t.offset.y)),u.setAttribute("flood-color",Y(t.color))}:null},grayscale:function(t){return t?function(n){t.setAttribute("values",Q(function(t){return[.2126+.7874*(t=1-t),.7152-.7152*t,.0722-.0722*t,0,0,.2126-.2126*t,.7152+.2848*t,.0722-.0722*t,0,0,.2126-.2126*t,.7152-.7152*t,.0722+.9278*t,0,0,0,0,0,1,0]}(n)))}:null},"hue-rotate":function(t){return t?function(n){return t.setAttribute("values",H(n))}:null},invert:function(t,n,r){return(t=Tt(r,n))?function(n){n=H(n)+" "+H(1-n),t.map((function(t){return t.setAttribute("tableValues",n)}))}:null},opacity:function(t,n,r){return(t=r.getElementById(n+"-A"))?function(n){return t.setAttribute("tableValues","0 "+H(n))}:null},saturate:function(t){return t?function(n){return t.setAttribute("values",H(n))}:null},sepia:function(t){return t?function(n){return t.setAttribute("values",Q(function(t){return[.393+.607*(t=1-t),.769-.769*t,.189-.189*t,0,0,.349-.349*t,.686+.314*t,.168-.168*t,0,0,.272-.272*t,.534-.534*t,.131+.869*t,0,0,0,0,0,1,0]}(n)))}:null}};var qt=["R","G","B"];function Tt(t,n){var r=qt.map((function(r){return t.getElementById(n+"-"+r)||null}));return-1!==r.indexOf(null)?null:r}var Dt={fill:jt,"fill-opacity":Bt,stroke:jt,"stroke-opacity":Bt,"stroke-width":Mt,"stroke-dashoffset":{f:H,i:b},"stroke-dasharray":It,opacity:Bt,transform:function(n,r,e,i){if(!(n=function(n,r){if(!n||"object"!==t(n))return null;var e=!1;for(var i in n)n.hasOwnProperty(i)&&(n[i]&&n[i].length?(n[i].forEach((function(t){t.e&&(t.e=r(t.e))})),e=!0):delete n[i]);return e?n:null}(n,i)))return null;var u=function(t,i,u){var o=arguments.length>3&&void 0!==arguments[3]?arguments[3]:null;return n[t]?e(i,n[t],u):r&&r[t]?r[t]:o};return r&&r.a&&n.o?function(t){var r=e(t,n.o,At);return _t.recomposeSelf(r,u("r",t,b,0)+r.a,u("k",t,A),u("s",t,A),u("t",t,A)).toString()}:function(t){return _t.recomposeSelf(u("o",t,wt,null),u("r",t,b,0),u("k",t,A),u("s",t,A),u("t",t,A)).toString()}},"#filter":function(t,n,r,e,i,u,o,a){if(!n.items||!t||!t.length)return null;var l=function(t,n){var r=(t=t.map((function(t){return t&&Rt[t[0]]?(n.getElementById(t[1]),Rt[t[0]](n.getElementById(t[1]),t[1],n)):null}))).length;return function(n){for(var e=0;e<r;e++)t[e]&&t[e](n[e].value)}}(n.items,a);return l?(t=function(t,n){return t.map((function(t){return t.e=n(t.e),t}))}(t,e),function(n){l(r(n,t,Pt))}):null},"#line":Ot,points:{f:Q,i:O},d:St,r:Mt,"#size":J,"#radius":Z,_:function(t,n){if(Array.isArray(t))for(var r=0;r<t.length;r++)this[t[r]]=n;else this[t]=n}};return function(t){!function(t,n){if("function"!=typeof n&&null!==n)throw new TypeError("Super expression must either be null or a function");t.prototype=Object.create(n&&n.prototype,{constructor:{value:t,writable:!0,configurable:!0}}),n&&u(t,n)}(o,t);var r=a(o);function o(){return n(this,o),r.apply(this,arguments)}return e(o,null,[{key:"build",value:function(t){var n=l(i(o),"build",this).call(this,t,Dt),r=(n.el,n.options,n.player);return function(t,n,r){t.play()}(r),r}}]),o}(L)}));
__SVGATOR_PLAYER__.build({"root":"eysodjhx8hp1","animations":[{"duration":10000,"direction":1,"iterations":1,"fill":1,"alternate":true,"elements":{"eysodjhx8hp18":{"stroke-dasharray":[{"t":0,"v":[]},{"t":3000,"v":[740.73]}]},"eysodjhx8hp20":{"fill":[{"t":0,"v":{"t":"c","v":{"r":0,"g":0,"b":0,"a":0.04}}},{"t":1500,"v":{"t":"c","v":{"r":0,"g":0,"b":0,"a":0.34}}},{"t":3000,"v":{"t":"c","v":{"r":0,"g":0,"b":0,"a":0.58}}},{"t":6000,"v":{"t":"c","v":{"r":0,"g":0,"b":0,"a":0.81}}},{"t":10000,"v":{"t":"c","v":{"r":0,"g":0,"b":0,"a":1}}}],"stroke-dashoffset":[{"t":0,"v":529.82},{"t":3000,"v":0}]}}}],"options":{"start":"load","hover":"freeze","click":"freeze","scroll":25,"exportedIds":"unique","title":"undraw_Master_plan_re_jvit(1)"},"animationSettings":{"duration":10000,"direction":1,"iterations":1,"fill":1,"alternate":true}})]]></script></svg>